# xmcd
#
# Track frame offsets: 
#        150
#        21597
#        40109
#        66298
#        86483
#        110737
#        133775
#        149935
#        168045
#        195187
#        226448
#        252254
#        269291
#        283873
#        300094
#
# Disc length: 4252 seconds
#
# Revision: 0
# Processed by: cddbd v1.5.2PL0 Copyright (c) Steve Scherf et al.
# Submitted via: ExactAudioCopyFreeDBPlugin 1.0
#
DISCID=d7109a0f
DTITLE=Paul Carrack - 2000-2020 The Independent Years
DYEAR=2020
DGENRE=Soul
TTITLE0=Another Cup Of Coffee (Buxton Opera House, 2004)
TTITLE1=Any Day Now (Buxton Opera House, 2004)
TTITLE2=Borderline (Symphony Hall, Birmingham, 2017)
TTITLE3=Just A Little Lie (Liverpool Philharmonic Hall, 2004)
TTITLE4=Inspire Me (Bonn, Germany, 2005)
TTITLE5=Late At Night (Symphony Hall, Birmingham, 2017)
TTITLE6=Good Feelin' About It (London Palladium, 2014)
TTITLE7=Harvest For The World (Bonn, Germany, 2005)
TTITLE8=Over My Shoulder (Symphony Hall, Birmingham, 2017)
TTITLE9=Sniffing About (Bonn, Germany, 2005)
TTITLE10=No Easy Way Out (Bonn, Germany, 2005)
TTITLE11=One In A Million (London Palladium, 2014)
TTITLE12=Life's Too Short (Acoustic Trio, 2018)
TTITLE13=Watching Over Me (Symphony Hall, Birmingham, 2017)
TTITLE14=One Small Step (Buxton Opera House, 2004)
EXTD=
EXTT0=
EXTT1=
EXTT2=
EXTT3=
EXTT4=
EXTT5=
EXTT6=
EXTT7=
EXTT8=
EXTT9=
EXTT10=
EXTT11=
EXTT12=
EXTT13=
EXTT14=
PLAYORDER=
